<svg xmlns="http://www.w3.org/2000/svg" viewBox="0 0 540 700" role="img" aria-labelledby="title desc">
<title id="title">Siimply Classic Mac n Cheese</title><desc id="desc">Illustrated golden yellow pasta box with a bowl of macaroni.</desc>
<defs><linearGradient id="box" x2="0" y2="1"><stop stop-color="#ffdf59"/><stop offset="1" stop-color="#f3b82f"/></linearGradient><filter id="shadow" x="-30%" y="-30%" width="160%" height="180%"><feDropShadow dx="0" dy="22" stdDeviation="17" flood-color="#653b1b" flood-opacity=".22"/></filter></defs>
<g filter="url(#shadow)" transform="rotate(-5 270 350)"><path d="M116 92h308l24 494H91z" fill="url(#box)" stroke="#df9824" stroke-width="8"/><path d="M116 92l19-33h294l-5 33" fill="#ffe984" stroke="#df9824" stroke-width="7"/><path d="M95 518h340l3 68H91z" fill="#f8c541"/><text x="270" y="194" text-anchor="middle" font-family="Arial,sans-serif" font-weight="900" font-size="76" letter-spacing="-4" fill="#34251c">SIIMPLY</text><text x="270" y="237" text-anchor="middle" font-family="Arial,sans-serif" font-weight="700" font-size="22" letter-spacing="5" fill="#75401f">MAC N CHEESE</text><path d="M127 271h278" stroke="#eb9a27" stroke-width="4"/><text x="270" y="321" text-anchor="middle" font-family="Arial,sans-serif" font-weight="800" font-size="40" fill="#743d20">CLASSIC</text>
<ellipse cx="270" cy="426" rx="117" ry="74" fill="#fff8e6"/><path d="M155 417q115 114 230 0l-20 63q-95 65-190 0z" fill="#f5f0df"/><g fill="none" stroke="#efb52c" stroke-width="20" stroke-linecap="round"><path d="M207 418c-28-24 22-48 35-16 12 30-32 39-39 11"/><path d="M269 406c-19-28 30-48 39-16 8 31-35 36-39 8"/><path d="M324 421c-27-21 14-49 32-23 17 25-21 42-34 18"/><path d="M245 450c-24-25 20-48 34-19 13 28-25 40-36 14"/><path d="M299 452c-20-25 24-45 36-16 11 28-27 37-37 12"/></g>
<text x="270" y="542" text-anchor="middle" font-family="Arial,sans-serif" font-weight="800" font-size="22" fill="#75401f">READY TO COOK · 130 g</text></g></svg>
